<svg id="Layer_1" data-name="Layer 1" xmlns="http://www.w3.org/2000/svg" viewBox="0 0 500 233"><defs><style>.cls-1{fill:#ffec06;}.cls-2{fill:#a3a3a3;}.cls-3{fill:#fff;}</style></defs><path class="cls-1" d="M184,162.76c-.83,3.36-.71,5.89.39,7.61s3.07,2.57,5.94,2.57l28.26,0s-3.07,12.36,6.24,17.69c-19.88,0-42.13.08-42.13.08a24.14,24.14,0,0,1-9.37-1.69,14.35,14.35,0,0,1-6.39-5,17.52,17.52,0,0,1-2.89-8.25,32.46,32.46,0,0,1,1-11.23l13.42-54H197Z"/><path class="cls-1" d="M313.26,118.53a14.38,14.38,0,0,0-2.22-2.45,16,16,0,0,0-4.2-2.64,23.52,23.52,0,0,0-9.44-1.76H272.58a30.14,30.14,0,0,0-10.23,1.76,29,29,0,0,0-8.91,5.09,33.52,33.52,0,0,0-7,8.19,39.76,39.76,0,0,0-4.55,11.18L235,165.64a32,32,0,0,0-1,11.24,17.72,17.72,0,0,0,2.68,7.94l.2.31a13.84,13.84,0,0,0,3.47,3.44l16.38-15.14a5,5,0,0,1-2.32-1.94,5.94,5.94,0,0,1-.82-2.29,13.66,13.66,0,0,1,.44-5.32l6-24.22a14.5,14.5,0,0,1,4.17-7.61,10.53,10.53,0,0,1,7.23-2.57h18.4a7.42,7.42,0,0,1,5,1.52,4.55,4.55,0,0,1,.9,1.05,7.32,7.32,0,0,1,.9,4.42l17.59-16.26A14.24,14.24,0,0,0,313.26,118.53Z"/><path class="cls-1" d="M374.44,160.84H393l-1.19,4.8a40.37,40.37,0,0,1-4.56,11.24,32.88,32.88,0,0,1-7,8.25,28.71,28.71,0,0,1-8.93,5,31.3,31.3,0,0,1-10.3,1.7H336.17a24.1,24.1,0,0,1-9.37-1.7,14.4,14.4,0,0,1-6.39-5,17.6,17.6,0,0,1-2.89-8.25,32,32,0,0,1,1-11.24l6.9-27.74A39.28,39.28,0,0,1,330,126.73a33.17,33.17,0,0,1,7-8.2,29.08,29.08,0,0,1,8.9-5.09,30.18,30.18,0,0,1,10.23-1.75h24.82a23.52,23.52,0,0,1,9.44,1.75,15.13,15.13,0,0,1,6.42,5.09,17.33,17.33,0,0,1,2.94,8.2,31.44,31.44,0,0,1-1,11.17l-1.2,4.8H379l.76-3c.83-3.36.7-5.89-.39-7.61s-3.07-2.57-5.94-2.57H355a10.49,10.49,0,0,0-7.22,2.57,14.51,14.51,0,0,0-4.18,7.61l-6,24.22q-1.24,5,.39,7.61t5.95,2.58h18.4a10.49,10.49,0,0,0,7.22-2.58,14.47,14.47,0,0,0,4.18-7.61Z"/><path class="cls-2" d="M146.22,160.75V142.51l-14.65-1.58a53.48,53.48,0,0,0-7.9-18.89L133,110.45l-8.59-8.62-21.2,21.42a37.48,37.48,0,1,1-52.55,53.09l-20.9,21.12L38,205.72l11.24-9.08a53.29,53.29,0,0,0,19.19,8L70,219H88.14l1.54-14.34a53.22,53.22,0,0,0,19.19-8l11.24,9.08L133,192.82l-9.11-11.34a53.56,53.56,0,0,0,7.82-19.16Z"/><path class="cls-1" d="M117.58,96.61,24.14,193.34A64.41,64.41,0,0,1,8.42,151.07c0-35.65,23.86-52.74,33-66.53,21.27-32,26-73.54,26-73.54S87.91,67.7,117.58,96.61Z"/><path class="cls-1" d="M99.94,151.49a20.84,20.84,0,0,1-37.5,12.59l29-29.48A20.91,20.91,0,0,1,99.94,151.49Z"/><line class="cls-3" x1="91.39" y1="134.6" x2="62.44" y2="164.08"/><path class="cls-1" d="M236.78,185a14.28,14.28,0,0,0,2.21,2.45,16.16,16.16,0,0,0,4.21,2.64,23.49,23.49,0,0,0,9.44,1.75h24.82a30.18,30.18,0,0,0,10.23-1.75,29.08,29.08,0,0,0,8.9-5.09,33.17,33.17,0,0,0,7-8.2,39.4,39.4,0,0,0,4.55-11.17L315,137.9a32.51,32.51,0,0,0,1-11.24,17.73,17.73,0,0,0-2.69-8c-.06-.1-.13-.2-.2-.3a13.67,13.67,0,0,0-3.47-3.44l-16.37,15.14a5.07,5.07,0,0,1,2.31,1.94,6,6,0,0,1,.83,2.29,13.81,13.81,0,0,1-.44,5.31l-6,24.23a14.43,14.43,0,0,1-4.17,7.61,10.53,10.53,0,0,1-7.22,2.57H260.18a7.42,7.42,0,0,1-5-1.52,4.77,4.77,0,0,1-.9-1,7.18,7.18,0,0,1-.9-4.42l-17.59,16.26A14.24,14.24,0,0,0,236.78,185Z"/><path class="cls-2" d="M463.05,110.65l-11.24,45.89-7.13,29.09a8,8,0,0,1-7.81,6.14H417.15l18.36-75a8.05,8.05,0,0,1,7.82-6.14Z"/><path class="cls-2" d="M496.36,110.65l-.15.59L478,185.63a8,8,0,0,1-7.81,6.14H450.45l11.06-45.13,7.31-29.85a8,8,0,0,1,7.81-6.14Z"/><path class="cls-1" d="M451.81,156.54l-7.13,29.09a8,8,0,0,1-7.81,6.14h-19.6Z"/><path class="cls-1" d="M496.21,111.24,478,185.63a8,8,0,0,1-7.81,6.14H450.45l11.06-45.13Z"/></svg>