<svg id="Layer_1" data-name="Layer 1" xmlns="http://www.w3.org/2000/svg" viewBox="0 0 1796.8 475.2"><defs><style>.cls-1{fill:#fd0017;}.cls-2{fill:#231f20;}.cls-3{fill:#0073fe;}.cls-4{fill:#9fe400;}</style></defs><path class="cls-1" d="M460.27,34c2,1.3,4.35,1.1,6.53,1.66,14.5,3.74,26.3,11.31,34.84,23.79,23.93,35,46.5,70.81,69.37,106.46,1.3,2,2.58,4.06,3.93,6.18a3.45,3.45,0,0,1-2.34.32c-43,0-86,.32-129-.11-21.5-.22-39.05-8.85-51-27.52Q356.91,89.25,321,34Z"/><path class="cls-2" d="M1746.29,349.29c-10.4,0-20.79,0-31.19.1-1.51,0-1.92-.63-2.3-1.93-2-6.85-4.2-13.65-6.13-20.52-.49-1.74-1.35-1.94-2.85-1.93-13.62,0-27.24.05-40.86,0a2.47,2.47,0,0,0-2.82,2c-2.34,6.84-4.83,13.62-7.24,20.43-.36,1-.56,1.95-2.06,1.94-10.21-.06-20.42,0-31,0,2.06-6.17,4-12.14,6-18.09q19.86-58.85,39.68-117.7c.73-2.16,1.59-3,4.05-3,9.58.18,19.17.14,28.76,0,1.89,0,2.6.6,3.16,2.3q21.76,66.54,43.65,133c.26.79.18,1.78,1.08,2.28Zm-63.19-97.16a9.65,9.65,0,0,0-.6,1.26c-4.14,14.4-8.23,28.8-12.41,43.18-.52,1.79.22,1.92,1.65,1.91,7.7,0,15.4-.08,23.09,0,2,0,2.46-.39,1.85-2.34C1692.14,281.61,1687.69,267,1683.1,252.13Z"/><path class="cls-3" d="M360.77,208.85c-1.07.81-2.09,1.6-3.13,2.38a85.51,85.51,0,0,0-20.65,22c-38.31,59.27-76.44,118.67-115.51,177.45-4.51,6.77-8.78,13.75-15.11,19.1-11.13,9.4-23.91,14.55-38.57,14.57q-64.8.06-129.6,0H35.28c-.11-1.07.58-1.61,1-2.25Q103.17,339,170.06,235.89c11.81-18.24,28.91-27.14,50.07-27.35,46.24-.47,92.49-.15,138.74-.14C359.44,208.4,360.1,208.15,360.77,208.85Z"/><path class="cls-4" d="M574.81,208.74c-8.34,13-16.38,25.71-24.51,38.31-16,24.77-31.86,49.61-48.5,73.94-10.12,14.8-24.4,22.59-41.79,25.33a20.35,20.35,0,0,1-3.22.09H321.46c4.25-6.61,8.27-12.89,12.32-19.16,19.61-30.29,39.35-60.49,58.77-90.9,10.31-16.13,25-24.64,43.69-27.16a47.65,47.65,0,0,1,6.41-.46H574.81Z"/><path class="cls-2" d="M1322.28,284.76c3.07-8.72,5.91-16.79,8.74-24.85,5.5-15.67,11-31.32,16.46-47,.59-1.71,1.27-2.34,3.16-2.31,9.14.12,18.28.09,27.42,0,1.68,0,2.42.22,2.68,2.18,2.73,20.29,5.6,40.56,8.44,60.83q4.17,29.88,8.36,59.77c.73,5.22,1.43,10.44,2.14,15.63a4,4,0,0,1-2.42.31c-9.23,0-18.46,0-27.69,0-1.59,0-2.32-.24-2.5-2.1q-3.87-38.44-7.9-76.88c-.11-1-.18-2.11-.27-3.25-1.11.55-1.11,1.66-1.43,2.51q-14.67,38.52-29.23,77.1c-.73,1.93-1.55,2.94-3.78,2.63-2.64-.36-5.93,1-7.8-.54s-2-4.62-2.9-7.05q-12.9-35.61-25.79-71.24c-.28-.78-.27-1.77-1.32-2.42-1.14,9-2.29,17.92-3.39,26.82q-3.29,26.35-6.5,52.72c-.15,1.21-.48,1.7-1.77,1.69-9.32,0-18.64-.07-28,0-2.06,0-1.58-1.13-1.41-2.22q2.2-14.58,4.46-29.16,4.73-30.88,9.45-61.76,3.32-21.74,6.59-43.49c.24-1.55.76-2.18,2.51-2.16,8.69.11,17.39.13,26.08,0,1.94,0,2.53.7,3.09,2.34C1305.85,236.68,1314,260.4,1322.28,284.76Z"/><path class="cls-2" d="M1511.23,262.29v3.63c0,26.95,0,53.9,0,80.85,0,2.09-.5,2.67-2.62,2.63-8.79-.12-17.57-.09-26.36,0-1.73,0-2.47-.21-2.46-2.25q.09-67.14,0-134.3c0-1.72.41-2.25,2.2-2.23q13.17.13,26.35,0a4.28,4.28,0,0,1,4.12,2.13q27.76,40.33,55.68,80.59l1.78,2.55c.68-.92.37-1.82.37-2.64.05-26.59.11-53.18,0-79.77,0-2.43.65-2.91,2.94-2.87,8.79.14,17.57.1,26.36,0,1.78,0,2.24.48,2.23,2.23q-.06,67.16,0,134.3c0,1.72-.4,2.28-2.22,2.26-8.42-.11-16.85-.13-25.28,0a5,5,0,0,1-4.77-2.46q-28.19-41-56.53-82Z"/><path class="cls-2" d="M967.75,292.83l43.48,56c-.82.81-1.67.47-2.41.47-11.38,0-22.76,0-34.15.07a5,5,0,0,1-4.61-2.31c-11.62-16.21-23.36-32.35-35.06-48.51a7.23,7.23,0,0,0-7.06-2.34c-1.32.42-.74,1.49-.74,2.25q0,15.43,0,30.88c0,5.91,0,11.82.08,17.72,0,1.62-.22,2.33-2.13,2.31q-15.72-.15-31.45,0c-1.85,0-2.16-.59-2.16-2.26q.06-67.14,0-134.28c0-1.34-.09-2.26,1.87-2.26,22,.09,44.09.05,66.13.11a53.19,53.19,0,0,1,10.64,1.37A26.27,26.27,0,0,1,984.53,220c5.25,5.59,10.42,11.19,12.13,18.95,2.54,11.48,2.15,23-2.81,33.63-4.72,10.09-13.13,16.77-24.12,19.8C969.23,292.5,968.71,292.6,967.75,292.83Zm-40.46-37c0,5.09,0,10.19,0,15.29,0,1.22.08,2,1.67,2,6.35-.06,12.7.21,19.06-.11,9.55-.47,18.32-7.58,17.33-18.38-.05-.62,0-1.25,0-1.88a13.62,13.62,0,0,0-12-13.57c-8.1-1.21-16.24-1-24.38-.6-1.55.07-1.7.73-1.69,2C927.32,245.63,927.29,250.73,927.29,255.83Z"/><path class="cls-2" d="M779.74,279.74q0-33.3,0-66.61c0-1.93.34-2.54,2.43-2.53q42.09.12,84.18,0c1.86,0,2.39.44,2.37,2.34-.12,8.33-.14,16.65,0,25,0,2.15-.71,2.42-2.58,2.41-16.94-.07-33.89,0-50.83-.09-2.14,0-2.93.36-2.86,2.71.18,6.44.16,12.89,0,19.34,0,2.08.6,2.49,2.56,2.48,16.4-.07,32.81,0,49.21-.11,2.68,0,3.23.77,3.17,3.29-.17,8.05-.12,16.11,0,24.17,0,1.89-.52,2.38-2.4,2.37-16.67-.07-33.34,0-50-.09-2,0-2.56.41-2.51,2.47.15,6.53.17,13.07,0,19.6-.06,2.35.72,2.72,2.86,2.71,16.85-.09,33.71,0,50.56-.1,2.11,0,2.9.32,2.85,2.69-.16,8.51-.11,17,0,25.52,0,1.64-.39,2.09-2.07,2.09q-42.36-.08-84.72,0c-2.15,0-2.17-.9-2.17-2.52Q779.77,313.32,779.74,279.74Z"/><path class="cls-2" d="M1107.76,349q4.17-12.37,8.34-24.8,18.72-55.43,37.37-110.87c.73-2.18,1.69-2.79,3.9-2.76,9.68.12,19.36.09,29,0,1.58,0,2.3.39,2.82,2q22,67.31,44.2,134.55c.61,1.83.29,2.25-1.62,2.23-9.5-.08-19-.1-28.5,0-1.86,0-2.41-.74-2.86-2.28-1.94-6.59-4-13.14-5.9-19.75-.49-1.7-1.06-2.42-3-2.41-13.53.11-27.07.09-40.6,0a2.66,2.66,0,0,0-3,2.13c-2.32,6.84-4.82,13.63-7.22,20.45-.37,1.05-.68,1.83-2.14,1.82-10-.08-20.07-.05-30.11-.07C1108.26,349.32,1108.1,349.19,1107.76,349Zm63.31-96.34-.58.05c-4.18,14.56-8.33,29.12-12.55,43.67-.51,1.75,0,2.1,1.71,2.08,7.7-.07,15.4-.1,23.09,0,2.23,0,2.23-.66,1.65-2.47-2.78-8.75-5.43-17.54-8.12-26.32Q1173.66,261.21,1171.07,252.69Z"/><path class="cls-2" d="M657.6,279.83c0-22.2,0-44.4-.05-66.6,0-2.08.5-2.64,2.62-2.63,16.49.12,33,0,49.47.16a148.76,148.76,0,0,1,21.66,1.86c12.1,1.88,20.52,8.78,25.84,19.27,8.65,17.09,8,34.45-1,51.17C749.83,294.84,738.8,300.23,726,302c-11.32,1.55-22.74.54-34.1.51-2.49,0-3.05.66-3,3.07.12,13.78,0,27.57.11,41.35,0,2-.49,2.51-2.49,2.48q-13-.18-26.08,0c-2.16,0-2.83-.4-2.82-2.72C657.64,324.4,657.6,302.11,657.6,279.83Zm44-41.36c-3.57,0-7.16.06-10.73,0-1.42,0-2,.23-2,1.86.08,10.55.06,21.1,0,31.65,0,1.31.24,1.95,1.73,1.94,7,0,14,.16,20.94,0,4.81-.09,9.37-1,13-4.72,5.44-5.52,7-12.13,4.69-19.23-2.08-6.47-7.18-9.93-14-10.94C710.72,238.36,706.16,238.55,701.6,238.47Z"/><path class="cls-2" d="M1079.8,294.81c0,17.36,0,34.73,0,52.09,0,2-.53,2.53-2.53,2.5-9-.11-17.93-.14-26.89,0-2.35,0-2.71-.75-2.71-2.87.07-34.37,0-68.75.11-103.12,0-2.62-.66-3.22-3.23-3.19-10.57.16-21.15,0-31.72.11-1.74,0-2.48-.22-2.45-2.25.12-8.41.09-16.82,0-25.24,0-1.69.35-2.24,2.17-2.24q51,.09,101.9,0c1.74,0,2.28.42,2.26,2.21-.09,8.42-.11,16.83,0,25.24,0,2-.74,2.29-2.48,2.28-10.48-.08-21,0-31.45-.09-2.36,0-3.14.44-3.12,3C1079.86,260.43,1079.8,277.62,1079.8,294.81Z"/><path class="cls-2" d="M1451.76,280.06c0,22.19,0,44.38,0,66.57,0,2.25-.57,2.81-2.79,2.78-9.13-.14-18.27-.1-27.41,0-1.74,0-2.26-.42-2.26-2.21q.08-67.11,0-134.22c0-1.91.55-2.37,2.4-2.35,9.13.09,18.27.11,27.41,0,2.08,0,2.67.49,2.66,2.62C1451.73,235.5,1451.76,257.78,1451.76,280.06Z"/></svg>